<svg id="svg" version="1.1" xmlns="http://www.w3.org/2000/svg" xmlns:xlink="http://www.w3.org/1999/xlink" width="400" height="146.53465346534654" viewBox="0, 0, 400,146.53465346534654"><g id="svgg"><path id="path1" d="M78.417 4.408 C 77.867 4.705,76.667 5.362,75.750 5.867 C 74.259 6.688,73.269 7.231,71.083 8.425 C 70.717 8.626,69.742 9.149,68.917 9.587 C 68.092 10.026,66.854 10.700,66.167 11.086 C 65.479 11.472,64.392 12.071,63.750 12.418 C 62.715 12.977,61.792 13.482,58.333 15.384 C 57.829 15.661,56.967 16.127,56.417 16.420 C 55.867 16.712,54.892 17.237,54.250 17.586 C 53.608 17.935,52.783 18.382,52.417 18.579 C 51.559 19.042,49.852 19.975,47.750 21.131 C 46.833 21.635,45.483 22.365,44.750 22.753 C 44.017 23.141,43.117 23.628,42.750 23.835 C 42.383 24.042,41.371 24.603,40.500 25.082 C 39.029 25.891,38.378 26.244,35.500 27.797 C 34.446 28.366,31.944 29.725,29.917 30.830 C 29.367 31.130,28.429 31.638,27.833 31.959 C 27.238 32.280,26.675 32.596,26.583 32.662 C 26.492 32.728,25.678 33.174,24.775 33.654 C 23.871 34.133,22.896 34.657,22.608 34.817 C 22.319 34.978,21.483 35.432,20.750 35.826 C 20.017 36.220,19.004 36.776,18.500 37.063 C 17.996 37.349,17.433 37.660,17.250 37.754 C 16.637 38.067,16.702 40.167,17.325 40.167 C 17.500 40.167,17.746 40.270,17.873 40.396 C 17.999 40.523,18.342 40.679,18.636 40.743 C 18.929 40.808,19.127 40.929,19.075 41.014 C 18.928 41.251,18.365 41.195,17.912 40.898 C 16.932 40.256,17.000 37.876,17.000 72.886 C 17.000 103.216,17.016 104.962,17.292 105.197 C 17.452 105.334,18.104 105.740,18.740 106.098 C 19.376 106.457,20.314 106.992,20.823 107.288 C 21.333 107.585,22.030 107.979,22.373 108.166 C 22.716 108.352,23.654 108.902,24.457 109.388 C 25.260 109.873,26.029 110.323,26.167 110.387 C 26.304 110.451,26.642 110.649,26.917 110.826 C 27.192 111.003,27.754 111.321,28.167 111.533 C 28.579 111.744,28.942 111.973,28.972 112.042 C 29.003 112.110,29.106 112.167,29.201 112.167 C 29.296 112.167,29.909 112.490,30.562 112.885 C 31.216 113.280,31.863 113.656,32.000 113.720 C 32.137 113.784,32.475 113.985,32.750 114.167 C 33.025 114.348,33.362 114.549,33.500 114.612 C 33.637 114.676,34.200 114.998,34.750 115.327 C 35.300 115.656,35.938 116.020,36.167 116.136 C 36.396 116.252,36.733 116.438,36.917 116.550 C 37.812 117.097,39.277 117.949,39.500 118.053 C 39.637 118.118,39.975 118.319,40.250 118.500 C 40.525 118.681,40.862 118.881,41.000 118.944 C 41.137 119.007,41.550 119.249,41.917 119.482 C 42.283 119.715,42.808 120.030,43.083 120.182 C 43.358 120.334,43.846 120.617,44.167 120.812 C 44.487 121.007,44.956 121.249,45.208 121.350 C 45.460 121.450,45.667 121.600,45.667 121.683 C 45.667 121.766,45.766 121.833,45.887 121.833 C 46.009 121.833,47.002 122.366,48.096 123.016 C 49.189 123.667,50.346 124.342,50.667 124.518 C 50.987 124.693,51.362 124.907,51.500 124.993 C 51.637 125.078,52.350 125.493,53.083 125.914 C 53.817 126.335,54.529 126.752,54.667 126.841 C 54.804 126.930,55.029 127.053,55.167 127.115 C 55.304 127.177,55.867 127.501,56.417 127.833 C 56.967 128.166,57.529 128.491,57.667 128.554 C 57.804 128.618,58.142 128.815,58.417 128.993 C 58.692 129.170,59.254 129.488,59.667 129.699 C 60.079 129.911,60.516 130.177,60.637 130.292 C 60.758 130.406,60.964 130.500,61.095 130.500 C 61.226 130.500,61.333 130.567,61.333 130.649 C 61.333 130.730,61.521 130.844,61.750 130.902 C 61.979 130.959,62.167 131.080,62.167 131.170 C 62.167 131.260,62.251 131.333,62.354 131.333 C 62.457 131.333,63.097 131.671,63.776 132.083 C 64.456 132.496,65.042 132.833,65.079 132.833 C 65.116 132.833,66.023 133.358,67.095 134.000 C 68.167 134.642,69.104 135.167,69.177 135.167 C 69.250 135.167,69.412 135.269,69.538 135.395 C 69.663 135.520,69.931 135.675,70.133 135.739 L 70.500 135.856 70.500 98.913 L 70.500 61.970 70.125 61.657 C 69.919 61.485,69.596 61.342,69.407 61.339 C 69.218 61.336,68.918 61.223,68.740 61.089 C 68.562 60.954,68.257 60.842,68.062 60.839 C 67.867 60.836,67.614 60.721,67.500 60.583 C 67.386 60.446,67.133 60.331,66.938 60.328 C 66.743 60.325,66.438 60.213,66.260 60.078 C 66.082 59.943,65.763 59.833,65.551 59.833 C 65.340 59.833,65.167 59.758,65.167 59.667 C 65.167 59.575,65.035 59.500,64.875 59.499 C 64.715 59.498,64.382 59.393,64.136 59.265 C 63.890 59.136,63.459 58.981,63.178 58.919 C 62.897 58.857,62.667 58.738,62.667 58.653 C 62.667 58.569,62.494 58.500,62.282 58.500 C 62.070 58.500,61.751 58.390,61.574 58.255 C 61.396 58.121,61.096 58.008,60.908 58.005 C 60.720 58.002,60.495 57.940,60.408 57.867 C 60.321 57.793,59.800 57.560,59.250 57.349 C 58.700 57.138,57.987 56.856,57.667 56.721 C 56.803 56.360,56.486 56.233,55.750 55.952 C 54.915 55.634,52.582 54.701,51.917 54.420 C 51.642 54.304,51.098 54.087,50.708 53.938 C 50.319 53.789,49.681 53.545,49.292 53.396 C 48.902 53.247,48.358 53.029,48.083 52.911 C 47.808 52.794,47.246 52.569,46.833 52.411 C 46.113 52.136,45.199 51.751,44.661 51.497 C 44.521 51.430,44.164 51.323,43.870 51.258 C 43.575 51.193,43.333 51.071,43.333 50.987 C 43.333 50.902,43.160 50.833,42.949 50.833 C 42.737 50.833,42.418 50.723,42.240 50.589 C 42.062 50.454,41.791 50.342,41.639 50.339 C 41.486 50.336,41.148 50.225,40.889 50.094 C 40.132 49.709,39.214 49.333,39.030 49.333 C 38.937 49.333,38.611 49.208,38.305 49.055 C 37.318 48.561,37.174 48.500,36.986 48.500 C 36.789 48.500,35.891 48.136,35.111 47.740 C 34.852 47.608,34.563 47.500,34.470 47.500 C 34.377 47.500,34.064 47.397,33.775 47.271 C 33.486 47.145,32.650 46.802,31.917 46.509 C 31.183 46.216,30.371 45.869,30.111 45.738 C 29.852 45.607,29.539 45.500,29.417 45.500 C 29.294 45.500,28.981 45.391,28.722 45.258 C 28.462 45.124,27.650 44.783,26.917 44.499 C 25.247 43.852,24.867 43.694,24.278 43.401 C 24.019 43.272,23.677 43.167,23.518 43.167 C 23.360 43.167,23.085 43.057,22.907 42.922 C 22.729 42.787,22.424 42.675,22.229 42.672 C 22.034 42.669,21.781 42.554,21.667 42.417 C 21.553 42.279,21.327 42.167,21.165 42.167 C 21.004 42.167,20.657 42.055,20.394 41.918 C 20.131 41.781,19.790 41.668,19.635 41.668 C 19.230 41.666,19.071 41.317,19.393 41.136 C 19.563 41.042,19.667 40.769,19.667 40.420 C 19.667 39.593,19.535 39.688,24.000 37.293 C 24.596 36.973,25.421 36.524,25.833 36.295 C 26.246 36.067,27.033 35.634,27.583 35.333 C 28.133 35.033,28.921 34.601,29.333 34.373 C 29.746 34.145,30.796 33.580,31.667 33.117 C 32.537 32.654,33.475 32.142,33.750 31.980 C 34.025 31.818,34.662 31.468,35.167 31.203 C 36.157 30.683,37.615 29.888,39.333 28.931 C 39.929 28.599,40.792 28.138,41.250 27.905 C 41.708 27.672,42.308 27.349,42.583 27.187 C 43.266 26.784,45.135 25.764,46.747 24.913 C 47.482 24.525,48.383 24.039,48.750 23.832 C 49.439 23.442,50.358 22.938,52.083 22.003 C 52.633 21.705,53.458 21.256,53.917 21.005 C 54.375 20.755,55.837 19.962,57.167 19.243 C 58.496 18.524,59.808 17.805,60.083 17.645 C 60.358 17.485,60.915 17.187,61.320 16.982 C 61.725 16.777,63.075 16.050,64.320 15.365 C 65.565 14.681,66.883 13.958,67.250 13.758 C 67.617 13.558,68.442 13.107,69.083 12.756 C 75.562 9.212,76.605 8.667,76.898 8.667 C 77.279 8.667,77.315 66.380,76.934 66.925 C 76.806 67.107,76.375 67.428,75.976 67.637 C 75.577 67.846,75.025 68.150,74.750 68.313 C 74.475 68.475,73.802 68.853,73.254 69.152 C 72.707 69.452,71.935 69.886,71.539 70.118 L 70.820 70.539 70.868 71.811 C 70.918 73.128,71.355 73.580,72.052 73.036 C 72.161 72.951,72.662 72.657,73.167 72.383 C 73.671 72.109,74.796 71.486,75.667 70.998 C 76.537 70.510,77.625 69.916,78.083 69.678 C 78.542 69.440,79.123 69.107,79.375 68.937 L 79.834 68.628 79.792 36.286 C 79.764 14.896,79.694 3.931,79.583 3.906 C 79.492 3.885,78.967 4.111,78.417 4.408 M99.333 48.639 C 99.333 64.849,99.379 78.157,99.435 78.212 C 99.601 78.379,101.310 77.274,101.792 76.689 C 101.956 76.489,102.000 70.934,102.000 50.153 C 102.000 22.053,101.962 23.347,102.773 23.906 C 102.943 24.024,103.608 24.406,104.250 24.755 C 104.892 25.104,105.696 25.565,106.038 25.778 C 106.380 25.992,106.696 26.167,106.741 26.167 C 106.785 26.167,107.368 26.493,108.036 26.891 C 108.704 27.290,109.772 27.908,110.411 28.266 C 111.049 28.624,111.912 29.119,112.327 29.365 C 112.743 29.612,113.271 29.918,113.500 30.045 C 115.827 31.337,117.105 32.068,118.051 32.647 C 118.668 33.024,119.216 33.333,119.269 33.333 C 119.323 33.333,119.790 33.586,120.308 33.894 C 121.778 34.769,128.281 38.494,130.833 39.923 C 131.521 40.308,132.346 40.782,132.667 40.976 C 132.987 41.171,133.362 41.382,133.500 41.445 C 133.637 41.508,134.026 41.731,134.364 41.942 C 134.702 42.152,135.565 42.650,136.281 43.048 C 136.997 43.447,138.575 44.349,139.788 45.053 C 141.000 45.757,142.029 46.333,142.073 46.333 C 142.202 46.333,144.718 47.860,145.034 48.129 C 145.238 48.303,145.333 48.686,145.368 49.476 C 145.420 50.666,145.713 50.978,146.262 50.429 C 146.406 50.285,146.623 50.167,146.744 50.167 C 146.865 50.167,147.008 50.054,147.060 49.917 C 147.113 49.779,147.268 49.667,147.406 49.667 C 147.804 49.667,148.000 49.102,148.000 47.953 C 148.000 46.722,147.990 46.709,146.256 45.735 C 145.617 45.377,144.755 44.878,144.339 44.627 C 143.923 44.376,143.475 44.119,143.344 44.056 C 143.077 43.927,141.208 42.866,137.861 40.943 C 136.639 40.241,135.611 39.667,135.577 39.667 C 135.543 39.667,134.771 39.217,133.860 38.667 C 132.950 38.117,132.161 37.667,132.108 37.667 C 132.055 37.667,131.331 37.254,130.500 36.750 C 129.669 36.246,128.956 35.833,128.917 35.833 C 128.877 35.833,128.289 35.496,127.610 35.083 C 126.930 34.671,126.290 34.333,126.187 34.333 C 126.084 34.333,126.000 34.275,126.000 34.203 C 126.000 34.132,125.794 33.986,125.542 33.880 C 125.290 33.774,124.708 33.458,124.250 33.179 C 123.792 32.900,123.304 32.618,123.167 32.552 C 123.029 32.487,122.392 32.125,121.750 31.748 C 121.108 31.370,120.471 31.007,120.333 30.941 C 120.196 30.875,119.933 30.729,119.750 30.618 C 119.567 30.507,118.967 30.154,118.417 29.833 C 117.867 29.512,117.289 29.175,117.134 29.083 C 116.978 28.992,116.491 28.719,116.050 28.478 C 115.610 28.237,114.987 27.882,114.667 27.688 C 114.346 27.495,113.971 27.284,113.833 27.221 C 113.696 27.157,113.113 26.819,112.539 26.469 C 111.964 26.119,111.464 25.833,111.428 25.833 C 111.391 25.833,110.790 25.496,110.092 25.083 C 109.395 24.671,108.791 24.333,108.751 24.333 C 108.711 24.333,108.019 23.935,107.214 23.448 C 106.409 22.961,105.638 22.508,105.500 22.442 C 105.362 22.375,105.100 22.229,104.917 22.118 C 104.733 22.006,103.983 21.583,103.250 21.177 C 102.517 20.770,101.447 20.152,100.872 19.802 C 100.298 19.453,99.716 19.167,99.580 19.167 C 99.363 19.167,99.333 22.708,99.333 48.639 M20.808 44.427 C 21.143 44.570,21.629 44.795,21.889 44.927 C 22.148 45.059,22.474 45.167,22.613 45.167 C 22.752 45.167,23.064 45.271,23.308 45.399 C 23.551 45.526,24.087 45.761,24.500 45.921 C 24.912 46.081,25.486 46.314,25.775 46.439 C 26.064 46.564,26.405 46.667,26.534 46.667 C 26.662 46.667,26.838 46.729,26.925 46.806 C 27.012 46.882,27.458 47.079,27.917 47.244 C 28.375 47.408,28.975 47.642,29.250 47.764 C 29.525 47.886,30.725 48.371,31.917 48.842 C 33.108 49.312,34.155 49.766,34.242 49.849 C 34.329 49.932,34.558 50.000,34.751 50.000 C 34.945 50.000,35.249 50.110,35.426 50.245 C 35.604 50.379,35.910 50.492,36.105 50.495 C 36.300 50.498,36.553 50.612,36.667 50.750 C 36.781 50.887,37.034 51.002,37.229 51.005 C 37.424 51.008,37.729 51.121,37.907 51.255 C 38.085 51.390,38.367 51.500,38.534 51.500 C 38.701 51.500,38.968 51.571,39.127 51.659 C 39.286 51.746,39.717 51.938,40.083 52.085 C 40.450 52.233,40.962 52.462,41.222 52.594 C 41.481 52.725,41.807 52.833,41.946 52.833 C 42.085 52.833,42.398 52.938,42.641 53.065 C 42.884 53.193,43.383 53.412,43.750 53.552 C 45.104 54.069,47.093 54.855,47.417 55.002 C 47.600 55.085,48.650 55.501,49.750 55.927 C 50.850 56.353,51.975 56.796,52.250 56.911 C 52.525 57.027,53.087 57.250,53.500 57.407 C 53.913 57.565,54.462 57.800,54.722 57.930 C 54.981 58.060,55.328 58.167,55.493 58.167 C 55.658 58.167,55.886 58.279,56.000 58.417 C 56.114 58.554,56.371 58.667,56.572 58.667 C 56.772 58.667,57.082 58.777,57.260 58.911 C 57.438 59.046,57.716 59.158,57.877 59.161 C 58.039 59.164,58.301 59.238,58.461 59.325 C 58.620 59.412,59.050 59.606,59.417 59.754 C 59.783 59.903,60.308 60.129,60.583 60.257 C 60.858 60.384,61.290 60.537,61.542 60.596 C 61.794 60.655,62.000 60.770,62.000 60.851 C 62.000 60.933,62.181 61.000,62.403 61.000 C 62.625 61.000,63.019 61.108,63.278 61.240 C 64.058 61.636,64.955 62.000,65.152 62.000 C 65.254 62.000,65.468 62.071,65.627 62.159 C 66.037 62.383,67.016 62.788,67.457 62.914 C 68.372 63.177,68.310 60.714,68.326 97.477 C 68.342 133.851,68.383 132.030,67.563 131.721 C 67.293 131.620,64.723 130.135,64.000 129.662 C 63.862 129.573,63.600 129.423,63.417 129.330 C 63.233 129.237,62.708 128.936,62.250 128.661 C 60.872 127.834,57.322 125.799,56.837 125.558 C 56.702 125.490,55.666 124.887,54.534 124.218 C 53.403 123.548,52.446 123.000,52.408 123.000 C 52.370 123.000,51.869 122.714,51.295 122.364 C 50.720 122.014,50.137 121.676,50.000 121.612 C 49.862 121.549,49.525 121.348,49.250 121.167 C 48.975 120.986,48.600 120.762,48.417 120.670 C 48.233 120.577,47.936 120.407,47.756 120.292 C 47.145 119.902,46.246 119.379,45.330 118.881 C 43.508 117.891,43.261 117.747,43.037 117.542 C 42.912 117.427,42.741 117.333,42.658 117.333 C 42.574 117.333,42.036 117.046,41.461 116.695 C 40.887 116.343,40.042 115.847,39.583 115.593 C 38.311 114.885,36.427 113.772,36.333 113.672 C 36.287 113.623,35.912 113.412,35.500 113.202 C 35.087 112.992,34.637 112.751,34.500 112.665 C 33.847 112.259,32.056 111.216,31.833 111.112 C 31.696 111.049,31.358 110.852,31.083 110.676 C 30.575 110.351,29.885 109.958,28.833 109.395 C 28.513 109.224,28.213 109.046,28.167 109.000 C 28.121 108.954,27.821 108.776,27.500 108.604 C 27.018 108.345,24.802 107.070,23.833 106.495 C 22.753 105.853,20.971 104.844,20.443 104.576 C 19.242 103.965,19.333 106.467,19.333 74.020 C 19.333 47.579,19.359 44.665,19.595 44.429 C 19.921 44.103,20.049 44.102,20.808 44.427 M147.006 50.410 C 146.889 50.551,146.652 50.667,146.480 50.667 C 146.307 50.667,146.167 50.738,146.167 50.824 C 146.167 50.911,145.986 51.080,145.766 51.199 C 145.545 51.319,144.176 52.140,142.724 53.024 C 141.272 53.908,139.846 54.771,139.557 54.941 C 139.062 55.231,136.584 56.717,135.983 57.083 C 135.833 57.175,135.457 57.391,135.147 57.564 C 134.837 57.737,132.988 58.843,131.039 60.023 C 129.090 61.202,127.462 62.167,127.421 62.167 C 127.381 62.167,127.064 62.362,126.716 62.600 C 126.368 62.838,125.933 63.102,125.750 63.186 C 125.567 63.270,125.214 63.468,124.966 63.627 C 124.718 63.787,123.893 64.284,123.133 64.732 C 122.372 65.180,121.563 65.667,121.333 65.812 C 121.104 65.958,120.767 66.161,120.583 66.263 C 120.400 66.365,118.990 67.210,117.449 68.141 C 115.908 69.072,114.618 69.833,114.581 69.833 C 114.545 69.833,114.230 70.028,113.882 70.267 C 113.535 70.505,113.100 70.769,112.917 70.852 C 112.733 70.936,112.358 71.150,112.083 71.326 C 111.808 71.503,111.396 71.752,111.167 71.880 C 110.938 72.008,108.925 73.212,106.695 74.556 C 104.465 75.900,102.581 77.000,102.507 77.000 C 102.434 77.000,102.281 77.112,102.167 77.250 C 102.053 77.387,101.818 77.500,101.646 77.500 C 101.474 77.500,101.333 77.577,101.333 77.671 C 101.333 77.765,101.165 77.907,100.958 77.987 C 100.752 78.068,100.321 78.313,100.000 78.533 C 99.679 78.753,99.304 78.988,99.167 79.056 C 98.902 79.187,98.517 79.417,97.833 79.853 C 97.604 79.999,95.560 81.229,93.292 82.585 L 89.167 85.051 89.167 113.516 C 89.167 129.171,89.228 142.018,89.303 142.065 C 89.441 142.150,90.366 141.700,95.417 139.085 C 96.975 138.278,99.337 137.060,100.667 136.379 C 101.996 135.697,103.233 135.059,103.417 134.960 C 103.949 134.674,104.154 134.568,106.000 133.618 C 106.962 133.123,108.763 132.191,110.000 131.548 C 111.237 130.904,113.768 129.599,115.623 128.647 C 117.478 127.695,119.428 126.688,119.956 126.409 C 120.485 126.130,122.942 124.859,125.417 123.586 C 127.892 122.312,130.817 120.805,131.917 120.237 C 133.017 119.668,135.117 118.586,136.583 117.833 C 138.050 117.079,139.962 116.088,140.833 115.631 C 141.704 115.174,143.600 114.195,145.045 113.456 C 146.946 112.484,147.697 112.016,147.758 111.764 C 148.012 110.704,147.744 50.253,147.485 50.203 C 147.339 50.175,147.123 50.268,147.006 50.410 M145.232 54.930 C 145.288 55.075,145.333 67.571,145.333 82.698 L 145.333 110.203 144.958 110.599 C 144.752 110.816,144.423 110.996,144.226 110.997 C 144.030 110.999,143.826 111.112,143.773 111.250 C 143.720 111.388,143.487 111.500,143.255 111.500 C 143.023 111.500,142.833 111.575,142.833 111.667 C 142.833 111.758,142.693 111.833,142.520 111.833 C 142.348 111.833,142.119 111.940,142.010 112.071 C 141.901 112.202,141.461 112.493,141.031 112.718 C 137.477 114.575,131.817 117.501,128.000 119.455 C 126.487 120.229,124.425 121.293,123.417 121.820 C 119.339 123.948,115.098 126.133,112.418 127.486 C 110.860 128.273,109.510 128.975,109.418 129.047 C 109.325 129.119,108.388 129.613,107.333 130.145 C 106.279 130.678,104.329 131.679,103.000 132.371 C 101.671 133.063,99.083 134.398,97.250 135.339 C 95.417 136.280,93.504 137.262,93.000 137.523 C 91.942 138.069,91.740 138.099,91.601 137.736 C 91.546 137.591,91.500 126.054,91.500 112.099 L 91.500 86.725 91.875 86.378 C 92.081 86.187,92.550 85.869,92.917 85.671 C 93.283 85.473,93.808 85.169,94.083 84.996 C 94.358 84.823,94.824 84.559,95.117 84.409 C 95.411 84.259,95.739 84.030,95.846 83.901 C 95.953 83.772,96.103 83.667,96.179 83.667 C 96.256 83.667,97.063 83.217,97.973 82.667 C 98.884 82.117,99.712 81.667,99.814 81.667 C 99.916 81.667,100.000 81.605,100.000 81.530 C 100.000 81.454,100.356 81.216,100.792 81.001 C 101.227 80.786,101.621 80.562,101.667 80.502 C 101.738 80.409,102.488 79.951,106.000 77.853 C 106.321 77.661,106.733 77.436,106.917 77.352 C 107.100 77.268,107.535 77.005,107.882 76.767 C 108.230 76.528,108.586 76.333,108.674 76.333 C 108.762 76.333,108.833 76.258,108.833 76.167 C 108.833 76.075,108.908 76.000,108.998 76.000 C 109.089 76.000,111.155 74.800,113.588 73.333 C 116.022 71.867,118.044 70.667,118.082 70.667 C 118.119 70.667,118.472 70.452,118.867 70.189 C 119.261 69.927,119.996 69.484,120.500 69.206 C 122.206 68.266,122.498 68.084,122.499 67.958 C 122.500 67.890,122.570 67.833,122.655 67.833 C 122.740 67.833,125.159 66.423,128.030 64.700 C 130.901 62.976,133.362 61.513,133.500 61.448 C 133.637 61.383,133.975 61.191,134.250 61.021 C 136.384 59.702,142.875 55.833,142.956 55.833 C 143.012 55.833,143.175 55.729,143.320 55.602 C 144.111 54.905,145.090 54.561,145.232 54.930 M338.700 55.367 C 338.575 55.492,338.500 56.114,338.500 57.027 C 338.500 58.785,338.551 58.833,340.417 58.833 C 342.287 58.833,342.333 58.789,342.333 57.000 C 342.333 55.699,342.293 55.490,342.011 55.339 C 341.556 55.096,338.949 55.117,338.700 55.367 M349.356 55.436 L 348.972 55.705 349.048 72.811 C 349.132 91.629,349.128 91.559,350.173 92.973 C 351.064 94.178,353.389 94.817,356.180 94.624 C 357.591 94.527,359.891 93.342,360.520 92.389 C 361.365 91.107,360.394 89.624,359.336 90.581 C 358.430 91.401,354.652 91.223,353.768 90.318 L 353.250 89.789 353.205 77.707 C 353.172 68.839,353.211 65.564,353.351 65.396 C 353.500 65.216,354.228 65.167,356.737 65.167 C 360.521 65.167,360.333 65.262,360.333 63.333 C 360.333 61.407,360.512 61.500,356.814 61.500 C 352.743 61.500,353.167 61.861,353.167 58.395 L 353.167 55.492 352.739 55.329 C 352.023 55.057,349.797 55.127,349.356 55.436 M269.417 59.922 C 267.079 60.378,265.726 60.871,263.667 62.018 C 262.109 62.885,259.494 65.237,258.693 66.491 C 258.544 66.725,258.331 66.992,258.220 67.083 C 258.020 67.248,257.003 69.030,256.650 69.833 C 256.549 70.063,256.324 70.571,256.150 70.963 C 255.976 71.355,255.833 71.807,255.833 71.969 C 255.833 72.130,255.672 72.709,255.476 73.256 C 255.157 74.141,255.118 74.598,255.118 77.417 C 255.118 80.235,255.157 80.693,255.476 81.578 C 255.672 82.124,255.833 82.726,255.833 82.915 C 255.833 83.105,255.937 83.408,256.065 83.589 C 256.192 83.771,256.391 84.238,256.508 84.628 C 256.625 85.018,256.821 85.421,256.944 85.522 C 257.066 85.624,257.167 85.784,257.167 85.877 C 257.167 86.283,259.103 88.903,260.244 90.040 C 264.086 93.869,270.408 95.988,275.083 95.013 C 277.943 94.417,281.203 93.113,282.509 92.044 C 284.953 90.042,285.928 89.056,286.941 87.563 C 287.514 86.719,288.833 84.233,288.833 83.997 C 288.833 83.889,288.943 83.564,289.077 83.275 C 289.329 82.732,289.718 81.054,290.029 79.167 C 290.243 77.873,290.124 75.470,289.779 74.083 C 289.260 71.999,289.185 71.728,288.904 70.917 C 288.746 70.458,288.524 69.971,288.411 69.833 C 288.298 69.696,288.149 69.397,288.080 69.170 C 288.010 68.942,287.825 68.567,287.669 68.337 C 287.513 68.106,287.175 67.597,286.918 67.206 C 283.265 61.646,276.021 58.631,269.417 59.922 M202.648 61.498 C 202.041 61.573,201.314 61.754,201.031 61.901 C 200.748 62.047,200.435 62.167,200.335 62.167 C 200.024 62.167,197.963 63.179,197.000 63.804 C 194.874 65.184,193.059 66.926,191.932 68.668 C 191.666 69.080,191.313 69.615,191.148 69.858 C 190.983 70.101,190.795 70.514,190.731 70.775 C 190.667 71.036,190.517 71.400,190.400 71.583 C 190.282 71.767,190.114 72.217,190.027 72.583 C 189.940 72.950,189.749 73.697,189.601 74.243 C 188.833 77.090,189.579 82.858,191.012 85.167 C 191.098 85.304,191.235 85.571,191.317 85.759 C 192.111 87.573,196.625 91.833,197.754 91.833 C 197.867 91.833,198.053 91.946,198.167 92.083 C 198.281 92.221,198.496 92.334,198.645 92.334 C 198.795 92.335,199.142 92.456,199.417 92.604 C 199.986 92.910,202.013 93.476,203.250 93.675 C 203.708 93.749,206.876 93.814,210.288 93.821 L 216.494 93.833 216.594 94.233 C 216.649 94.453,216.668 97.134,216.637 100.191 C 216.569 106.736,216.406 107.520,214.489 110.500 C 214.224 110.912,213.925 111.437,213.825 111.666 C 213.725 111.895,213.525 112.214,213.380 112.374 C 212.979 112.817,212.873 115.016,213.236 115.379 C 214.321 116.463,218.238 112.332,219.706 108.555 L 220.083 107.583 220.083 86.495 C 220.083 65.994,220.074 65.385,219.760 64.661 C 219.201 63.373,218.378 62.504,217.179 61.936 L 216.083 61.417 209.917 61.389 C 206.525 61.374,203.254 61.423,202.648 61.498 M229.358 61.620 C 229.160 61.990,229.272 62.624,229.604 63.010 C 229.727 63.153,229.950 63.865,230.099 64.593 C 230.443 66.275,230.517 66.361,231.565 66.299 L 232.411 66.250 232.948 65.250 C 233.586 64.061,233.632 63.382,233.125 62.611 C 232.919 62.298,232.671 61.907,232.574 61.742 C 232.292 61.265,229.603 61.162,229.358 61.620 M239.917 61.491 C 237.753 61.868,234.770 64.191,233.768 66.280 C 233.511 66.813,233.178 67.475,233.026 67.750 C 232.656 68.421,232.505 93.461,232.870 93.693 C 233.140 93.864,235.683 93.871,235.950 93.701 C 236.102 93.604,236.162 90.667,236.200 81.495 L 236.250 69.417 236.829 68.352 C 238.196 65.840,239.497 65.138,242.965 65.041 C 245.756 64.963,245.903 65.003,246.045 65.878 C 246.366 67.847,247.731 69.036,248.633 68.133 C 249.020 67.746,248.903 62.070,248.500 61.667 C 248.151 61.318,241.671 61.186,239.917 61.491 M294.578 61.567 C 294.228 61.823,294.223 61.808,295.410 64.667 C 295.619 65.171,295.959 66.033,296.166 66.583 C 296.372 67.133,296.634 67.771,296.749 68.000 C 296.863 68.229,297.052 68.717,297.169 69.083 C 297.285 69.450,297.483 69.898,297.607 70.079 C 297.732 70.260,297.833 70.523,297.833 70.665 C 297.833 70.806,297.983 71.201,298.167 71.544 C 298.350 71.886,298.500 72.261,298.500 72.377 C 298.500 72.493,298.650 72.868,298.833 73.210 C 299.017 73.552,299.167 73.926,299.168 74.041 C 299.169 74.156,299.354 74.625,299.580 75.083 C 299.805 75.542,299.992 76.018,299.995 76.141 C 299.998 76.264,300.111 76.564,300.248 76.808 C 300.384 77.051,300.601 77.550,300.730 77.917 C 300.859 78.283,301.131 78.996,301.333 79.500 C 301.536 80.004,301.811 80.717,301.944 81.083 C 302.077 81.450,302.332 82.055,302.510 82.428 C 302.688 82.800,302.833 83.227,302.833 83.376 C 302.833 83.525,302.906 83.692,302.996 83.747 C 303.085 83.803,303.265 84.201,303.395 84.632 C 303.526 85.064,303.752 85.642,303.899 85.917 C 304.045 86.192,304.166 86.529,304.167 86.667 C 304.168 86.804,304.318 87.142,304.500 87.417 C 304.682 87.692,304.832 88.032,304.832 88.173 C 304.833 88.314,304.983 88.724,305.167 89.083 C 305.350 89.443,305.500 89.818,305.500 89.917 C 305.500 90.015,305.650 90.390,305.833 90.750 C 306.017 91.110,306.167 91.482,306.168 91.577 C 306.171 91.873,307.009 93.569,307.218 93.702 C 307.455 93.852,312.749 93.874,313.299 93.726 C 313.510 93.670,313.830 93.352,314.012 93.020 C 314.194 92.688,314.674 91.892,315.080 91.250 C 315.486 90.608,315.935 89.858,316.078 89.583 C 316.221 89.308,316.672 88.558,317.081 87.917 C 317.490 87.275,317.978 86.487,318.167 86.167 C 318.355 85.846,318.654 85.358,318.830 85.083 C 319.006 84.808,319.457 84.058,319.833 83.417 C 320.209 82.775,320.847 81.725,321.251 81.083 C 321.655 80.442,322.140 79.635,322.329 79.292 C 322.519 78.948,322.730 78.667,322.800 78.667 C 323.079 78.667,323.667 79.203,323.667 79.457 C 323.667 79.606,323.805 80.033,323.975 80.406 C 324.145 80.778,324.490 81.646,324.743 82.333 C 324.996 83.021,325.345 83.892,325.518 84.268 C 325.692 84.645,325.833 85.009,325.833 85.076 C 325.833 85.144,325.941 85.436,326.073 85.725 C 326.376 86.391,327.629 89.537,327.941 90.417 C 328.071 90.783,328.284 91.308,328.413 91.583 C 328.543 91.858,328.689 92.277,328.737 92.513 C 328.984 93.719,332.428 94.423,334.406 93.671 L 334.833 93.508 334.833 89.504 C 334.833 86.946,334.773 85.500,334.667 85.500 C 334.575 85.500,334.500 85.601,334.500 85.725 C 334.500 85.849,334.318 86.293,334.096 86.711 C 333.873 87.129,333.640 87.816,333.576 88.237 C 333.300 90.082,332.108 90.396,331.304 88.837 C 331.045 88.334,330.831 87.809,330.828 87.670 C 330.825 87.531,330.638 87.042,330.413 86.583 C 330.188 86.125,330.002 85.623,330.002 85.468 C 330.001 85.313,329.927 85.141,329.838 85.086 C 329.748 85.031,329.568 84.633,329.438 84.201 C 329.307 83.770,329.081 83.192,328.935 82.917 C 328.788 82.642,328.668 82.316,328.668 82.192 C 328.667 82.069,328.555 81.769,328.419 81.526 C 328.283 81.282,328.066 80.783,327.936 80.417 C 327.807 80.050,327.551 79.375,327.368 78.917 C 327.184 78.458,326.724 77.296,326.345 76.333 C 325.966 75.371,325.546 74.384,325.411 74.141 C 325.277 73.898,325.167 73.597,325.167 73.472 C 325.167 73.347,325.017 72.965,324.833 72.623 C 324.650 72.281,324.500 71.912,324.500 71.803 C 324.500 71.694,324.361 71.300,324.190 70.928 C 324.020 70.555,323.490 69.237,323.012 68.000 C 322.534 66.762,322.042 65.525,321.918 65.250 C 321.794 64.975,321.641 64.543,321.578 64.290 C 321.515 64.037,321.401 63.792,321.326 63.745 C 321.250 63.699,321.069 63.250,320.924 62.749 C 320.587 61.591,320.145 61.333,318.497 61.333 C 316.669 61.333,316.289 61.803,317.087 63.081 C 317.202 63.266,317.389 63.717,317.503 64.083 C 317.617 64.450,317.766 64.825,317.833 64.917 C 317.901 65.008,318.051 65.383,318.167 65.750 C 318.282 66.117,318.432 66.492,318.500 66.583 C 318.568 66.675,318.719 67.050,318.835 67.417 C 318.952 67.783,319.149 68.231,319.274 68.412 C 319.398 68.593,319.500 68.857,319.500 68.998 C 319.500 69.139,319.650 69.535,319.833 69.877 C 320.017 70.219,320.167 70.596,320.167 70.714 C 320.167 70.833,320.308 71.208,320.482 71.548 C 321.112 72.783,321.093 73.015,320.248 74.417 C 320.027 74.783,319.691 75.346,319.502 75.667 C 319.312 75.987,319.013 76.475,318.837 76.750 C 318.661 77.025,318.209 77.775,317.833 78.417 C 317.457 79.058,316.817 80.108,316.411 80.750 C 316.004 81.392,315.555 82.142,315.413 82.417 C 315.271 82.692,314.933 83.254,314.663 83.667 C 314.393 84.079,314.122 84.520,314.060 84.647 C 313.998 84.773,313.472 85.661,312.890 86.620 C 312.309 87.579,311.833 88.399,311.833 88.442 C 311.833 88.820,310.713 89.833,310.294 89.833 C 309.747 89.833,309.167 89.570,309.167 89.322 C 309.167 89.231,309.043 88.877,308.892 88.536 C 308.741 88.196,308.488 87.579,308.329 87.167 C 308.171 86.754,307.874 86.004,307.670 85.500 C 307.465 84.996,307.193 84.283,307.064 83.917 C 306.934 83.550,306.717 83.051,306.581 82.808 C 306.445 82.564,306.333 82.263,306.333 82.138 C 306.333 82.014,306.183 81.632,306.000 81.290 C 305.817 80.948,305.666 80.574,305.665 80.459 C 305.664 80.344,305.479 79.875,305.254 79.417 C 305.028 78.958,304.841 78.469,304.839 78.329 C 304.836 78.189,304.732 77.926,304.607 77.745 C 304.483 77.565,304.284 77.117,304.167 76.750 C 304.049 76.383,303.851 75.935,303.726 75.755 C 303.602 75.574,303.500 75.308,303.500 75.165 C 303.500 75.021,303.350 74.610,303.167 74.250 C 302.983 73.890,302.833 73.523,302.833 73.434 C 302.833 73.345,302.688 72.967,302.510 72.594 C 302.332 72.222,302.077 71.617,301.944 71.250 C 301.811 70.883,301.536 70.171,301.333 69.667 C 301.131 69.162,300.859 68.450,300.730 68.083 C 300.601 67.717,300.384 67.218,300.248 66.974 C 300.111 66.731,299.998 66.431,299.995 66.308 C 299.992 66.184,299.805 65.708,299.580 65.250 C 299.354 64.792,299.169 64.290,299.168 64.135 C 299.167 63.980,299.093 63.807,299.002 63.751 C 298.912 63.695,298.723 63.257,298.584 62.776 C 298.196 61.444,295.754 60.707,294.578 61.567 M338.875 61.505 L 338.500 61.656 338.500 77.545 C 338.500 89.680,338.547 93.481,338.700 93.633 C 338.949 93.883,341.556 93.904,342.011 93.661 C 342.326 93.492,342.333 93.138,342.333 77.604 L 342.333 61.720 341.909 61.527 C 341.413 61.301,339.419 61.287,338.875 61.505 M276.500 64.112 C 279.517 65.109,281.804 66.731,283.566 69.125 C 284.393 70.249,285.332 71.957,285.333 72.338 C 285.333 72.478,285.443 72.749,285.576 72.939 C 286.442 74.176,286.470 80.255,285.617 81.948 C 285.487 82.206,285.335 82.604,285.280 82.833 C 285.197 83.183,284.669 84.205,283.917 85.476 C 283.453 86.259,280.867 88.831,280.542 88.832 C 280.427 88.833,280.333 88.908,280.333 88.999 C 280.333 89.161,279.646 89.568,278.500 90.082 C 278.179 90.226,277.729 90.447,277.500 90.573 C 277.271 90.699,276.671 90.878,276.167 90.972 C 275.662 91.065,275.039 91.222,274.781 91.321 C 273.179 91.933,268.278 91.154,266.333 89.978 C 266.196 89.895,265.858 89.718,265.583 89.585 C 264.092 88.865,261.323 85.994,260.482 84.295 C 259.466 82.243,259.368 81.964,258.831 79.583 C 258.433 77.817,258.900 74.017,259.732 72.250 C 259.862 71.975,260.049 71.563,260.149 71.333 C 260.458 70.626,261.574 68.899,261.987 68.490 C 262.132 68.348,262.438 68.010,262.669 67.740 C 263.189 67.131,264.602 65.961,265.194 65.650 C 269.375 63.453,273.010 62.959,276.500 64.112 M215.154 65.106 C 215.577 65.190,215.767 65.375,216.092 66.017 L 216.500 66.822 216.500 77.570 C 216.500 88.756,216.506 88.651,215.788 89.708 L 215.477 90.167 209.760 90.167 C 204.502 90.167,203.960 90.140,203.000 89.833 C 202.426 89.650,201.834 89.500,201.685 89.500 C 200.620 89.500,197.218 87.195,195.855 85.550 C 195.148 84.696,194.843 84.193,193.875 82.284 C 193.746 82.028,193.574 81.391,193.493 80.868 C 193.413 80.345,193.262 79.400,193.157 78.768 C 192.967 77.624,192.994 77.280,193.495 74.376 C 193.578 73.896,193.751 73.296,193.879 73.043 C 194.008 72.790,194.294 72.211,194.515 71.756 C 195.925 68.853,199.380 66.199,203.083 65.173 C 203.671 65.010,214.379 64.951,215.154 65.106 M65.417 73.402 C 64.408 73.971,63.133 74.686,62.583 74.991 C 62.033 75.296,61.246 75.733,60.833 75.962 C 60.421 76.191,59.708 76.583,59.250 76.833 C 58.256 77.377,53.912 79.771,52.792 80.394 C 50.881 81.455,50.363 81.740,49.500 82.208 C 48.483 82.760,47.140 83.497,46.000 84.129 C 45.587 84.357,44.650 84.871,43.917 85.271 C 43.183 85.671,42.471 86.070,42.333 86.159 C 42.196 86.247,41.708 86.511,41.250 86.746 C 40.792 86.981,40.304 87.247,40.167 87.338 C 40.029 87.429,38.904 88.056,37.667 88.730 C 34.621 90.390,33.509 91.004,32.917 91.354 C 32.642 91.516,32.079 91.820,31.667 92.029 C 31.254 92.238,30.654 92.568,30.333 92.763 C 29.793 93.090,29.296 93.364,26.583 94.833 C 26.033 95.130,25.283 95.542,24.917 95.747 C 24.550 95.953,23.800 96.369,23.250 96.673 C 22.700 96.976,21.800 97.477,21.250 97.786 C 20.700 98.094,20.081 98.431,19.875 98.533 C 19.434 98.753,19.282 101.480,19.708 101.519 C 20.206 101.565,20.632 101.437,21.415 101.006 C 21.874 100.753,22.662 100.320,23.167 100.042 C 23.671 99.765,25.096 98.977,26.333 98.291 C 30.214 96.139,30.433 96.018,33.000 94.621 C 33.504 94.347,33.992 94.069,34.083 94.003 C 34.175 93.938,34.979 93.497,35.871 93.024 C 36.762 92.552,37.737 92.020,38.037 91.844 C 38.338 91.667,38.925 91.337,39.343 91.110 C 39.761 90.883,40.398 90.530,40.760 90.327 C 42.259 89.481,45.768 87.552,46.000 87.445 C 46.137 87.382,46.483 87.189,46.767 87.016 C 47.051 86.843,47.763 86.441,48.350 86.123 C 48.937 85.805,49.773 85.347,50.208 85.106 C 50.644 84.864,51.356 84.469,51.792 84.228 C 52.227 83.987,53.258 83.414,54.083 82.954 C 54.908 82.495,56.071 81.858,56.667 81.540 C 57.262 81.222,57.975 80.829,58.250 80.668 C 58.761 80.368,59.707 79.843,61.333 78.955 C 62.509 78.314,63.309 77.872,64.423 77.250 C 64.916 76.975,65.791 76.499,66.368 76.192 C 67.738 75.463,67.833 75.319,67.833 73.982 C 67.833 72.000,67.881 72.011,65.417 73.402 M101.250 81.300 C 101.067 81.340,100.879 81.420,100.833 81.479 C 100.787 81.538,100.430 81.794,100.040 82.047 L 99.330 82.507 99.373 89.697 L 99.417 96.888 101.500 97.615 C 102.646 98.015,104.183 98.554,104.917 98.813 C 105.650 99.072,106.737 99.450,107.333 99.654 C 107.929 99.857,108.567 100.088,108.750 100.167 C 108.933 100.245,109.571 100.476,110.167 100.679 C 112.043 101.318,112.574 101.505,112.917 101.646 C 113.287 101.799,113.859 102.000,115.583 102.584 C 116.225 102.801,118.025 103.441,119.583 104.006 C 121.142 104.571,122.642 105.094,122.917 105.169 C 123.192 105.243,123.829 105.464,124.333 105.660 C 124.837 105.855,126.075 106.305,127.083 106.660 C 130.880 107.995,132.797 108.672,134.333 109.219 C 135.204 109.529,136.404 109.951,137.000 110.156 C 137.596 110.361,138.320 110.635,138.609 110.765 C 138.897 110.894,139.249 111.000,139.390 111.000 C 139.532 111.000,139.688 111.066,139.738 111.148 C 139.789 111.229,140.102 111.347,140.435 111.409 C 140.768 111.472,141.182 111.611,141.354 111.718 C 141.595 111.869,141.743 111.866,141.998 111.707 C 142.180 111.593,142.410 111.500,142.510 111.500 C 142.609 111.500,142.803 111.388,142.940 111.250 C 143.078 111.112,143.327 111.000,143.494 111.000 C 143.661 111.000,143.841 110.888,143.894 110.750 C 143.946 110.612,144.142 110.500,144.328 110.500 C 145.707 110.500,144.389 109.907,138.583 107.914 C 137.942 107.694,136.442 107.167,135.250 106.744 C 134.058 106.320,132.858 105.905,132.583 105.822 C 132.308 105.740,131.933 105.601,131.750 105.514 C 131.567 105.428,130.929 105.200,130.333 105.007 C 129.737 104.814,129.100 104.589,128.917 104.507 C 128.733 104.425,128.096 104.191,127.500 103.987 C 126.904 103.784,125.479 103.284,124.333 102.877 C 123.188 102.471,121.725 101.960,121.083 101.742 C 120.442 101.525,119.167 101.077,118.250 100.748 C 117.333 100.419,116.058 99.970,115.417 99.751 C 113.989 99.263,110.161 97.904,109.250 97.561 C 108.883 97.423,108.337 97.248,108.037 97.172 C 107.736 97.095,107.399 96.961,107.287 96.872 C 107.175 96.784,106.896 96.671,106.667 96.623 C 106.235 96.531,105.331 96.224,104.750 95.973 C 104.567 95.893,104.192 95.759,103.917 95.674 C 103.642 95.588,103.117 95.409,102.750 95.275 L 102.083 95.031 102.040 88.199 C 101.994 81.009,102.009 81.137,101.250 81.300 M326.585 112.831 C 326.386 113.153,325.980 114.935,325.824 116.167 C 325.640 117.628,325.434 117.860,324.435 117.735 C 319.907 117.172,315.978 128.085,319.917 130.288 C 320.881 130.827,322.741 130.416,323.056 129.593 C 323.217 129.174,323.579 129.294,323.782 129.833 C 323.987 130.375,324.791 130.550,325.121 130.125 C 325.270 129.931,325.682 127.682,325.921 125.750 C 325.978 125.292,326.126 124.542,326.251 124.083 C 326.376 123.625,326.530 122.764,326.593 122.170 C 326.656 121.577,326.805 120.817,326.923 120.482 C 327.041 120.148,327.186 119.433,327.245 118.895 C 327.304 118.357,327.493 117.279,327.664 116.500 C 328.135 114.355,328.294 113.027,328.100 112.834 C 327.885 112.618,326.717 112.616,326.585 112.831 M377.456 113.282 C 376.803 113.452,376.484 114.665,376.926 115.296 C 377.574 116.222,379.000 115.517,379.000 114.270 C 379.000 113.362,378.464 113.019,377.456 113.282 M242.833 118.032 C 241.399 118.676,240.567 119.744,239.422 122.409 C 239.052 123.272,238.796 125.789,238.934 127.210 C 239.198 129.929,241.208 131.121,244.000 130.214 C 245.755 129.644,245.363 128.592,243.461 128.770 C 241.872 128.920,241.433 128.703,241.005 127.559 C 240.285 125.635,240.648 125.003,242.659 124.683 C 245.241 124.272,246.667 122.806,246.667 120.559 C 246.667 118.289,244.881 117.112,242.833 118.032 M253.296 117.983 C 252.955 118.143,252.537 118.399,252.366 118.553 C 251.931 118.947,251.518 118.902,251.137 118.417 C 250.467 117.565,249.502 118.038,249.498 119.220 C 249.496 119.603,249.386 120.379,249.253 120.943 C 249.120 121.508,248.898 122.670,248.760 123.527 C 248.621 124.383,248.436 125.458,248.347 125.917 C 247.525 130.159,247.534 130.333,248.583 130.333 C 249.431 130.333,249.479 130.216,250.097 126.583 C 250.927 121.703,251.928 119.600,253.419 119.600 C 254.466 119.600,254.741 121.086,254.109 123.333 C 253.967 123.837,253.800 124.700,253.738 125.250 C 253.676 125.800,253.484 126.806,253.312 127.485 C 252.777 129.602,252.893 130.333,253.764 130.333 C 254.503 130.333,254.805 129.864,255.013 128.390 C 255.102 127.763,255.319 126.575,255.495 125.750 C 255.671 124.925,255.887 123.875,255.974 123.417 C 256.463 120.852,257.999 119.042,259.160 119.663 C 259.748 119.978,259.692 121.834,258.997 125.000 C 258.826 125.779,258.638 126.857,258.578 127.395 C 258.519 127.933,258.365 128.674,258.235 129.041 C 257.949 129.853,257.947 129.756,258.262 130.071 C 258.977 130.786,259.898 130.327,260.079 129.167 C 260.144 128.754,260.297 128.042,260.420 127.583 C 260.544 127.125,260.696 126.264,260.760 125.670 C 260.823 125.077,260.986 124.289,261.122 123.920 C 261.519 122.844,261.616 119.285,261.263 118.747 C 260.431 117.477,258.348 117.439,257.333 118.675 C 256.885 119.221,256.206 119.268,255.978 118.768 C 255.542 117.811,254.388 117.474,253.296 117.983 M268.723 118.057 C 268.341 118.258,267.872 118.564,267.680 118.738 C 267.488 118.912,267.309 119.023,267.282 118.985 C 267.255 118.947,267.103 118.710,266.946 118.458 C 266.117 117.134,265.237 118.031,264.928 120.514 C 264.798 121.561,264.621 122.604,264.534 122.833 C 264.448 123.063,264.322 123.771,264.255 124.408 C 264.188 125.046,264.064 125.747,263.981 125.967 C 263.897 126.188,263.718 127.102,263.583 128.000 C 263.448 128.898,263.271 129.809,263.190 130.024 C 263.108 130.240,262.954 131.077,262.847 131.883 C 262.740 132.690,262.580 133.539,262.493 133.769 C 262.213 134.505,262.297 134.995,262.732 135.160 C 263.586 135.484,264.330 134.990,264.338 134.093 C 264.342 133.524,265.050 130.562,265.222 130.389 C 265.282 130.329,265.523 130.366,265.757 130.473 C 267.191 131.126,269.554 129.705,270.652 127.530 C 273.374 122.136,272.174 116.241,268.723 118.057 M277.919 118.058 C 273.995 119.751,272.356 128.654,275.669 130.285 C 278.710 131.782,281.640 128.192,282.112 122.392 C 282.397 118.880,280.518 116.937,277.919 118.058 M302.083 118.021 C 297.885 119.714,296.437 128.934,300.164 130.249 C 301.843 130.841,304.170 130.321,304.164 129.355 C 304.160 128.596,303.964 128.448,303.231 128.652 C 301.128 129.235,300.000 128.445,300.000 126.387 C 300.000 125.081,300.160 124.923,301.720 124.693 C 303.791 124.388,305.305 123.343,305.677 121.962 C 306.484 118.965,304.672 116.977,302.083 118.021 M343.054 118.066 C 342.671 118.260,342.169 118.596,341.939 118.812 L 341.521 119.205 341.269 118.603 C 340.622 117.054,339.577 117.964,339.260 120.352 C 339.030 122.085,338.732 123.774,338.159 126.583 C 337.503 129.796,337.552 130.333,338.495 130.333 C 339.122 130.333,339.479 129.873,339.671 128.816 C 339.761 128.321,339.954 127.317,340.100 126.583 C 340.246 125.850,340.438 124.768,340.527 124.178 C 340.981 121.166,342.812 118.902,344.108 119.751 C 344.667 120.117,344.748 120.705,344.439 122.144 C 344.143 123.522,343.767 125.592,343.407 127.833 C 343.282 128.612,343.146 129.383,343.104 129.545 C 342.930 130.233,344.483 130.703,344.748 130.042 C 345.007 129.393,345.317 128.007,345.497 126.693 C 345.601 125.928,345.748 125.140,345.822 124.943 C 346.231 123.857,346.555 120.190,346.319 119.310 C 345.922 117.826,344.553 117.304,343.054 118.066 M353.396 118.055 C 350.562 119.060,348.333 122.990,348.333 126.982 C 348.333 130.392,351.008 131.781,352.976 129.394 C 353.514 128.740,353.832 128.768,353.836 129.468 C 353.840 130.155,354.052 130.364,354.684 130.304 L 355.250 130.250 355.441 129.000 C 355.546 128.313,355.752 126.962,355.899 126.000 C 356.046 125.037,356.273 123.837,356.403 123.333 C 356.532 122.829,356.689 121.976,356.750 121.438 C 356.812 120.900,356.968 120.159,357.098 119.792 C 357.760 117.915,356.052 117.113,353.396 118.055 M363.917 118.027 C 363.550 118.216,363.088 118.520,362.890 118.701 L 362.530 119.030 362.071 118.515 C 361.119 117.447,360.410 117.910,360.182 119.750 C 360.092 120.483,359.902 121.571,359.761 122.167 C 359.620 122.763,359.504 123.478,359.502 123.757 C 359.501 124.035,359.385 124.706,359.244 125.246 C 359.103 125.787,358.912 126.796,358.819 127.490 C 358.726 128.183,358.569 129.006,358.470 129.319 C 358.245 130.028,358.608 130.374,359.497 130.299 C 359.954 130.260,360.102 130.161,360.192 129.833 C 360.451 128.889,360.832 127.030,360.926 126.250 C 360.981 125.792,361.126 125.042,361.248 124.583 C 361.371 124.125,361.523 123.419,361.588 123.014 C 361.814 121.595,363.034 119.768,363.865 119.602 C 365.183 119.338,365.549 121.058,364.755 123.778 C 364.626 124.221,364.436 125.209,364.333 125.974 C 364.230 126.739,364.086 127.526,364.013 127.724 C 363.466 129.191,363.630 130.336,364.386 130.328 C 365.299 130.319,365.508 130.014,365.760 128.321 C 365.887 127.477,366.062 126.553,366.151 126.268 C 366.240 125.983,366.393 125.205,366.491 124.540 C 367.014 121.004,368.839 118.657,370.092 119.910 C 370.622 120.440,370.627 120.374,369.727 125.000 C 369.593 125.688,369.382 126.888,369.258 127.667 C 369.134 128.446,368.981 129.283,368.918 129.528 C 368.779 130.069,369.231 130.381,370.039 130.302 C 370.640 130.242,371.004 129.206,371.345 126.583 C 371.440 125.850,371.623 124.912,371.752 124.500 C 372.084 123.435,372.373 120.462,372.234 119.537 C 371.934 117.535,369.864 117.131,368.048 118.721 C 367.452 119.243,366.961 119.216,366.656 118.646 C 366.168 117.735,364.993 117.469,363.917 118.027 M384.050 118.077 C 382.926 118.496,382.403 118.850,381.799 119.598 C 381.249 120.280,380.500 121.411,380.500 121.560 C 380.500 121.629,380.357 122.000,380.183 122.384 C 379.323 124.279,379.386 127.904,380.301 129.236 C 381.375 130.799,384.833 131.014,384.833 129.518 C 384.833 128.900,384.625 128.765,383.746 128.810 C 379.858 129.011,381.273 120.011,385.199 119.566 C 386.321 119.439,386.667 119.187,386.667 118.494 C 386.667 117.590,385.747 117.443,384.050 118.077 M390.425 118.019 C 387.655 119.143,387.329 122.018,389.679 124.606 C 391.847 126.994,390.995 129.102,388.000 128.763 C 386.525 128.596,386.024 129.707,387.337 130.232 C 391.523 131.907,394.520 127.042,391.395 123.643 C 389.178 121.231,389.621 119.386,392.395 119.480 C 393.316 119.511,393.667 119.304,393.667 118.727 C 393.667 117.772,391.956 117.399,390.425 118.019 M312.140 118.170 C 311.805 118.348,311.372 118.693,311.179 118.938 C 310.787 119.437,310.672 119.388,310.422 118.617 C 310.282 118.184,310.150 118.074,309.719 118.032 C 308.932 117.956,308.713 118.430,308.417 120.842 C 308.278 121.983,308.052 123.327,307.915 123.828 C 307.778 124.329,307.667 125.009,307.667 125.338 C 307.667 125.668,307.521 126.495,307.343 127.177 C 306.730 129.520,306.831 130.333,307.734 130.333 C 308.562 130.333,308.802 129.931,309.084 128.070 C 309.222 127.161,309.445 125.929,309.581 125.333 C 309.716 124.737,309.828 124.090,309.830 123.895 C 309.841 122.730,311.211 120.684,312.473 119.946 C 314.236 118.916,313.919 117.230,312.140 118.170 M284.679 118.310 C 284.359 118.908,284.976 129.653,285.357 130.112 C 285.808 130.656,287.333 129.909,287.333 129.144 C 287.333 128.991,287.746 128.030,288.512 126.398 C 288.689 126.022,288.833 125.647,288.833 125.565 C 288.833 125.483,288.976 125.117,289.152 124.750 C 289.328 124.383,289.558 123.896,289.664 123.667 C 290.607 121.619,290.624 121.655,290.763 126.094 C 290.826 128.105,290.945 129.881,291.028 130.042 C 291.348 130.663,293.000 130.190,293.000 129.477 C 293.000 129.372,293.142 128.978,293.316 128.602 C 293.491 128.225,293.834 127.429,294.079 126.833 C 294.325 126.237,294.628 125.525,294.753 125.250 C 294.879 124.975,295.330 123.925,295.756 122.917 C 296.182 121.908,296.788 120.493,297.102 119.771 C 297.742 118.299,297.684 118.000,296.755 118.000 C 296.091 118.000,295.824 118.298,295.338 119.583 C 294.785 121.045,294.340 122.155,293.982 122.963 C 293.809 123.355,293.667 123.753,293.667 123.847 C 293.667 123.941,293.515 124.352,293.329 124.759 C 293.144 125.167,292.946 125.728,292.890 126.007 C 292.548 127.720,292.217 125.392,292.184 121.042 C 292.168 118.902,292.134 118.634,291.833 118.333 C 291.131 117.631,290.499 117.952,289.923 119.303 C 289.662 119.915,289.273 120.799,289.058 121.266 C 288.843 121.733,288.667 122.196,288.667 122.294 C 288.667 122.393,288.557 122.685,288.423 122.945 C 287.977 123.809,287.379 125.244,287.266 125.720 C 287.204 125.982,287.065 126.161,286.952 126.124 C 286.660 126.027,286.535 124.650,286.516 121.298 C 286.501 118.558,286.477 118.333,286.178 118.173 C 285.651 117.891,284.865 117.963,284.679 118.310 M329.700 118.200 C 329.454 118.446,329.444 119.330,329.673 120.519 C 329.768 121.013,329.959 122.879,330.097 124.667 C 330.235 126.454,330.389 128.367,330.438 128.917 C 330.576 130.471,329.145 132.804,327.534 133.652 C 326.757 134.060,326.881 135.667,327.689 135.667 C 328.140 135.667,330.154 133.900,330.809 132.931 C 331.952 131.239,333.667 127.859,333.667 127.297 C 333.667 127.175,333.769 126.926,333.894 126.745 C 334.019 126.565,334.178 126.229,334.246 126.000 C 334.314 125.771,334.468 125.358,334.587 125.083 C 334.707 124.808,334.998 124.115,335.235 123.542 C 335.473 122.969,335.854 122.059,336.083 121.521 C 336.313 120.982,336.500 120.481,336.500 120.407 C 336.500 120.333,336.658 119.946,336.850 119.548 C 337.330 118.556,337.187 117.998,336.455 118.005 C 335.499 118.015,335.195 118.499,334.238 121.535 C 334.103 121.966,333.927 122.359,333.848 122.408 C 333.769 122.456,333.653 122.770,333.590 123.104 C 333.528 123.438,333.332 123.982,333.155 124.312 C 332.978 124.642,332.833 125.067,332.833 125.257 C 332.833 125.864,332.403 126.299,332.099 125.999 C 331.820 125.725,331.501 122.436,331.500 119.825 C 331.500 118.212,331.384 118.000,330.500 118.000 C 330.170 118.000,329.810 118.090,329.700 118.200 M376.380 118.208 C 376.134 118.527,375.688 120.298,375.573 121.417 C 375.517 121.967,375.366 122.754,375.239 123.167 C 375.111 123.579,374.960 124.367,374.902 124.917 C 374.844 125.467,374.658 126.460,374.490 127.125 C 373.890 129.488,374.004 130.333,374.923 130.333 C 375.682 130.333,375.983 129.852,376.196 128.299 C 376.287 127.630,376.506 126.481,376.681 125.745 C 376.856 125.008,377.000 124.130,377.000 123.792 C 377.000 123.455,377.121 122.822,377.269 122.387 C 377.649 121.267,377.992 118.651,377.806 118.292 C 377.628 117.947,376.627 117.889,376.380 118.208 M355.137 119.973 C 355.167 120.176,355.078 120.696,354.940 121.129 C 354.802 121.562,354.641 122.329,354.582 122.833 C 354.467 123.807,353.914 125.861,353.616 126.417 C 353.517 126.600,353.308 127.013,353.150 127.333 C 352.561 128.533,351.259 129.159,350.639 128.539 C 350.005 127.905,350.492 123.524,351.349 122.167 C 351.436 122.029,351.612 121.692,351.740 121.417 C 352.483 119.826,354.962 118.773,355.137 119.973 M244.574 119.870 C 245.499 121.192,244.020 123.167,242.105 123.167 C 241.090 123.167,241.010 122.933,241.609 121.714 C 242.608 119.678,243.883 118.885,244.574 119.870 M279.889 120.039 C 280.775 121.231,279.724 126.784,278.322 128.319 C 277.689 129.012,276.653 129.055,276.228 128.407 C 275.643 127.514,275.887 123.110,276.576 122.127 C 276.717 121.925,276.833 121.641,276.833 121.496 C 276.833 120.088,279.117 119.000,279.889 120.039 M303.917 119.853 C 304.228 120.158,304.107 121.395,303.718 121.889 C 302.686 123.201,300.554 123.677,300.608 122.583 C 300.706 120.604,302.864 118.823,303.917 119.853 M324.678 119.673 C 325.064 119.879,325.085 120.358,324.766 121.643 C 324.638 122.160,324.483 123.071,324.423 123.667 C 323.915 128.651,320.333 131.118,320.333 126.484 C 320.333 122.356,322.715 118.622,324.678 119.673 M269.804 119.882 C 270.448 120.658,270.233 124.227,269.448 125.785 C 269.319 126.041,269.167 126.444,269.111 126.681 C 268.820 127.894,267.018 129.189,266.103 128.841 C 265.482 128.605,265.452 128.427,265.740 126.652 C 266.416 122.478,266.852 121.248,268.137 119.898 C 268.414 119.607,269.567 119.595,269.804 119.882 " stroke="none" fill="#ffffff" fill-rule="evenodd"></path></g></svg>