<svg id="Layer_1" height="512" viewBox="0 0 512 512" width="512" xmlns="http://www.w3.org/2000/svg" data-name="Layer 1"><path d="m474.29 446h-118.41a4.161 4.161 0 0 0 -3.88 4.01v41.32a3.851 3.851 0 0 0 3.88 3.67h118.41a3.707 3.707 0 0 0 3.71-3.67v-41.32a4.02 4.02 0 0 0 -3.71-4.01z" fill="#867af4"/><path d="m383.77 352.68-18.08-18.12a17.712 17.712 0 0 1 -3.81-5.7c-7.27-2.58-12.59-10.95-12.59-20.88 0-11.98 7.75-21.7 17.33-21.7 7.11 0 13.95 5.36 16.61 13.02h.5v-36.85h.03l68.19 54.53a23.486 23.486 0 0 1 6.71 16.43v112.94h-91.24v-17.01a23.419 23.419 0 0 1 -23.39-23.45v-36.49h39.7v-16.68z" fill="#ffd8b7"/><path d="m344.03 369.4h-9.67c6.57-3.08 10.99-9.33 10.99-15.81 0-9.59-9.69-17.36-21.66-17.36s-21.67 7.77-21.67 17.36c0 6.48 4.43 12.73 10.99 15.81h-50.61v-52.74h-5.86c-2.66 7.67-9.5 13.02-16.6 13.02-9.58 0-17.34-9.71-17.34-21.7s7.76-21.7 17.34-21.7c7.1 0 13.94 5.36 16.6 13.02h5.86v-51.42h52v-6.52c-7.65-2.67-13-9.51-13-16.63 0-9.59 9.7-17.36 21.66-17.36s21.67 7.77 21.67 17.36c0 7.12-5.35 13.96-13 16.63v6.52h52v51.42h-.5c-2.66-7.66-9.5-13.02-16.61-13.02-9.58 0-17.33 9.72-17.33 21.7 0 9.93 5.32 18.3 12.59 20.88a17.712 17.712 0 0 0 3.81 5.7l18.08 18.12-.04.04v16.68z" fill="#fcca3d"/><path d="m352.08 100.05c10.08 0 18.24 10.22 18.24 22.84s-8.16 22.84-18.24 22.84c-7.48 0-14.66-5.64-17.47-13.71h-6.85v54.81l-54.73.19v-6.86c8.05-2.82 13.68-10.01 13.68-17.51 0-10.09-10.21-18.26-22.8-18.26s-22.8 8.17-22.8 18.26c0 7.5 5.62 14.69 13.68 17.51v6.86h-53.98v-55h6.85c2.81 8.07 10 13.71 17.48 13.71 10.07 0 18.24-10.23 18.24-22.84s-8.17-22.84-18.24-22.84c-7.48 0-14.67 5.64-17.48 13.7h-6.85v-54.8h54.68v-6.18c-8.07-2.8-13.68-10.01-13.68-17.5 0-10.09 10.2-18.27 22.8-18.27 12.58 0 22.8 8.18 22.8 18.27 0 7.49-5.63 14.7-13.68 17.5v6.18h54.03v54.8h6.85c2.81-8.06 9.99-13.7 17.47-13.7z" fill="#adf8d1"/><path d="m200.81 259.4v55.5h-51.95c6.9-3.24 11.56-9.82 11.56-16.63 0-10.1-10.21-18.27-22.8-18.27s-22.8 8.17-22.8 18.27c0 6.81 4.66 13.39 11.56 16.63h-53.26v-55.5h-6.17c-2.8 8.08-9.99 13.7-17.47 13.7-10.08 0-18.24-10.22-18.24-22.83s8.16-22.84 18.24-22.84c7.48 0 14.67 5.64 17.47 13.7h6.17v-54.11h54.72v-6.86c-8.05-2.82-13.68-10.01-13.68-17.51 0-10.09 10.21-18.26 22.8-18.26s22.8 8.17 22.8 18.26c0 7.5-5.62 14.69-13.68 17.51v6.86h54.73v54.11h-.53c-2.8-8.06-10-13.7-17.48-13.7-10.08 0-18.24 10.23-18.24 22.84s8.16 22.83 18.24 22.83c7.48 0 14.68-5.62 17.48-13.7z" fill="#71c2ff"/><path d="m225.14 100.05c10.07 0 18.24 10.22 18.24 22.84s-8.17 22.84-18.24 22.84c-7.48 0-14.67-5.64-17.48-13.71h-6.85v55h-54.73v-6.86c8.06-2.82 13.68-10.01 13.68-17.51 0-10.09-10.2-18.26-22.8-18.26s-22.8 8.17-22.8 18.26c0 7.5 5.63 14.69 13.68 17.51v6.86h-54.72v-52.22c3.24 6.92 9.81 11.58 16.61 11.58 10.08 0 18.24-10.22 18.24-22.83s-8.16-22.84-18.24-22.84c-6.8 0-13.37 4.67-16.61 11.58v-53.34h55.42v-6.18c-8.06-2.8-13.68-10.01-13.68-17.5 0-10.09 10.2-18.27 22.8-18.27s22.8 8.18 22.8 18.27c0 7.49-5.63 14.7-13.68 17.5v6.18h54.03v54.8h6.85c2.81-8.06 10-13.7 17.48-13.7z" fill="#ff5576"/><path d="m383.73 299.3v17.29l-13.91-11.04-4.13 4.14a17.633 17.633 0 0 0 -3.81 19.17c-7.27-2.58-12.59-10.95-12.59-20.88 0-11.98 7.75-21.7 17.33-21.7 7.11 0 13.95 5.36 16.61 13.02z" fill="#d3a83c"/><path d="m452.51 462.17a9.1 9.1 0 1 1 -8.77 9.09 8.939 8.939 0 0 1 8.77-9.09z" fill="#604af3"/><path d="m382.21 491.33v-41.32a3.664 3.664 0 0 1 3.67-3.66h-30a3.664 3.664 0 0 0 -3.67 3.66v41.32a3.666 3.666 0 0 0 3.67 3.67h30a3.666 3.666 0 0 1 -3.67-3.67z" fill="#6c67d6"/><path d="m160.42 298.27c0-5.492-3.023-10.41-7.8-13.757-4.778 3.347-7.8 8.265-7.8 13.757s3.023 10.811 7.8 14.373c4.78-3.562 7.8-8.891 7.8-14.373z" fill="none"/><path d="m146.08 187.02h11.76v-6.86a21.981 21.981 0 0 1 -5.878-3.136 21.96 21.96 0 0 1 -5.882 3.136z" fill="none"/><g fill="#5ba7d6"><path d="m146.08 180.16a21.96 21.96 0 0 0 5.882-3.136c-4.776-3.566-7.8-8.883-7.8-14.374s3.023-10.4 7.8-13.748a26.2 26.2 0 0 0 -15-4.512c-12.59 0-22.8 8.17-22.8 18.26 0 7.5 5.63 14.69 13.68 17.51v6.86h18.24z"/><path d="m96.95 241.13h6.17v-54.11h-30v41.839a14.978 14.978 0 0 1 6.36-1.429c7.48 0 14.67 5.64 17.47 13.7z"/><path d="m96.95 259.4c-2.8 8.08-9.99 13.7-17.47 13.7a14.992 14.992 0 0 1 -6.36-1.428v43.228h30v-55.5z"/><path d="m64.816 236.687c-3.509-5.612-9.326-9.257-15.336-9.257-10.08 0-18.24 10.23-18.24 22.84s8.16 22.83 18.24 22.83c6.01 0 11.828-3.633 15.336-9.25a27.579 27.579 0 0 1 0-27.163z"/><path d="m190.42 298.27c0-10.1-10.21-18.27-22.8-18.27a26.193 26.193 0 0 0 -15 4.513c4.779 3.347 7.8 8.265 7.8 13.757s-3.023 10.811-7.8 14.373a21.761 21.761 0 0 0 3.76 2.257h22.48c6.9-3.24 11.56-9.82 11.56-16.63z"/></g><path d="m146.78 58.95h11.76v-6.18a21.824 21.824 0 0 1 -5.882-3.127 21.845 21.845 0 0 1 -5.878 3.127z" fill="none"/><path d="m159.76 162.65c0-5.487-3.02-10.4-7.8-13.748-4.779 3.346-7.8 8.261-7.8 13.748s3.026 10.808 7.8 14.374c4.779-3.566 7.8-8.883 7.8-14.374z" fill="none"/><path d="m119.73 146.38c10.08 0 18.24-10.22 18.24-22.83s-8.16-22.84-18.24-22.84c-6 0-11.825 3.644-15.336 9.252a27.588 27.588 0 0 1 0 27.168c3.511 5.614 9.332 9.25 15.336 9.25z" fill="#db4d6f"/><path d="m73.12 58.95v53.34c3.24-6.91 9.81-11.58 16.61-11.58 5.3 0 10.059 2.823 13.39 7.331v-49.091z" fill="#db4d6f"/><path d="m189.76 162.65c0-10.09-10.2-18.26-22.8-18.26a26.2 26.2 0 0 0 -15 4.512c4.778 3.346 7.8 8.261 7.8 13.748s-3.021 10.808-7.8 14.374a21.981 21.981 0 0 0 5.878 3.136v6.86h18.24v-6.86c8.062-2.82 13.682-10.01 13.682-17.51z" fill="#db4d6f"/><path d="m146.78 52.77a21.845 21.845 0 0 0 5.878-3.127c-4.777-3.563-7.8-8.889-7.8-14.373s3.02-10.405 7.8-13.754a26.189 26.189 0 0 0 -15-4.516c-12.6 0-22.8 8.18-22.8 18.27 0 7.49 5.62 14.7 13.68 17.5v6.18h18.24z" fill="#db4d6f"/><path d="m103.12 139.05c-3.331 4.506-8.094 7.33-13.39 7.33-6.8 0-13.37-4.66-16.61-11.58v52.22h30z" fill="#db4d6f"/><path d="m480.763 431.333a6 6 0 0 1 -6-6v-71.757a6 6 0 0 1 12 0v71.757a6 6 0 0 1 -6 6z" fill="#d4e1f4"/><path d="m480.763 340.893a6 6 0 0 1 -6-6v-4.885a6 6 0 0 1 12 0v4.885a6 6 0 0 1 -6 6z" fill="#d4e1f4"/><path d="m390.819 411.89a6 6 0 0 1 -5-2.678 37.9 37.9 0 0 1 -2.544-37.364 16.08 16.08 0 0 0 1.539-6.831l-.055-.962a5.248 5.248 0 0 0 -1.526-3.412l-21.794-21.843a23.646 23.646 0 0 1 0-33.346l4.134-4.143a6 6 0 0 1 7.978-.463l56.184 44.589a6 6 0 1 1 -7.459 9.4l-51.99-41.26-.351.353a11.622 11.622 0 0 0 0 16.394l21.792 21.843a17.24 17.24 0 0 1 5.01 11.194l.067 1.148c.007.115.009.231.009.346a28.185 28.185 0 0 1 -2.74 12.224 25.847 25.847 0 0 0 1.737 25.486 6 6 0 0 1 -4.991 9.325z" fill="#eac3a7"/></svg>