<svg id="Human_Resource" height="512" viewBox="0 0 64 64" width="512" xmlns="http://www.w3.org/2000/svg" data-name="Human Resource"><path d="m31 48v-7.54a5.991 5.991 0 0 0 -4.28-5.74l-2.16-.65a5.007 5.007 0 0 1 -3.56-4.79v-5.28h-8v5.28a5.007 5.007 0 0 1 -3.56 4.79l-2.16.65a5.991 5.991 0 0 0 -4.28 5.74v20.54h28z" fill="#56788b"/><path d="m61 24a15 15 0 1 0 -18 14.7v6.3h5v-6.149a14.992 14.992 0 0 0 13-14.851z" fill="#56788b"/><circle cx="46" cy="24" fill="#4dd4f7" r="11"/><path d="m41 41h9v4h-9z" fill="#acabb1"/><path d="m42 45h7a0 0 0 0 1 0 0v12.5a3.5 3.5 0 0 1 -3.5 3.5 3.5 3.5 0 0 1 -3.5-3.5v-12.5a0 0 0 0 1 0 0z" fill="#3e3d42"/><path d="m23.97 33.85c-.27 2.33-6.97 4.15-6.97 4.15s-6.7-1.82-6.97-4.15a5 5 0 0 0 2.97-4.57v-5.28h8v5.28a5 5 0 0 0 2.97 4.57z" fill="#ffcbbe"/><path d="m21 61h-8l3-22h2z" fill="#a7daf7"/><path d="m13 35h8l-3 4h-2z" fill="#fff"/><path d="m9.74 33.96 2.26 6.04 5-5-5.57-2.09-.01.01a4.757 4.757 0 0 1 -1.68 1.04z" fill="#91d1f5"/><path d="m22.57 32.91-5.57 2.09 5 5 2.26-6.04a4.757 4.757 0 0 1 -1.68-1.04z" fill="#91d1f5"/><path d="m17 29a8 8 0 0 1 -8-8v-11h16v11a8 8 0 0 1 -8 8z" fill="#ffddce"/><path d="m7 13h2a0 0 0 0 1 0 0v5a0 0 0 0 1 0 0h-2a2 2 0 0 1 -2-2v-1a2 2 0 0 1 2-2z" fill="#ffcbbe"/><path d="m27 13h2a0 0 0 0 1 0 0v5a0 0 0 0 1 0 0h-2a2 2 0 0 1 -2-2v-1a2 2 0 0 1 2-2z" fill="#ffcbbe" transform="matrix(-1 0 0 -1 54 31)"/><g fill="#3e3d42"><path d="m5 3h14a6 6 0 0 1 6 6v3a0 0 0 0 1 0 0h-12.306a7.694 7.694 0 0 1 -7.694-7.694v-1.306a0 0 0 0 1 0 0z"/><path d="m17 26c2.243 0 4-1.318 4-3h-2c0 .408-.779 1-2 1s-2-.592-2-1h-2c0 1.682 1.757 3 4 3z"/><path d="m14 19a1 1 0 0 0 1-1v-1a1 1 0 0 0 -2 0v1a1 1 0 0 0 1 1z"/><path d="m20 19a1 1 0 0 0 1-1v-1a1 1 0 0 0 -2 0v1a1 1 0 0 0 1 1z"/></g></svg>